<svg xmlns="http://www.w3.org/2000/svg" viewBox="0 0 512 512">
    <style>
        @media (prefers-color-scheme:dark){path{fill:#fff}}
    </style>
    <path d="M512.009 68.554S472.456 362.26 463.8 396.074c-8.655 33.823-33.652 71.977-101.732 74.933-50.963 2.211-224.484 0-224.484 0s155.598-6.274 229.299-34.673c25.602-9.865 49.201-23.357 60.634-55.665 15.284-43.2 84.49-312.11 84.49-312.11zM0 443.447s39.556-293.705 48.208-327.524C56.863 82.1 81.86 43.95 149.94 40.994c50.963-2.21 224.488 0 224.488 0s-155.603 6.27-229.303 34.673c-25.598 9.865-49.201 23.358-60.634 55.661C69.206 174.528.004 443.44.004 443.44z"/>
    <path d="m289.256 208.022 56.266.113c6.16 0 13.697 4.566 13.697 11.414 0 10.844-5.367 35.036-7.763 44.738s-9.128 35.61-9.358 44.28H256.5c-9.702 0-10.5-4.107-10.273-12.55 0-8.104 9.702-14.84 18.262-14.84l59.002-.113 9.475-45.543h-76.47c-25.795 0-44.167 6.853-53.303 24.314-6.047 11.64-16.32 45.653-16.32 62.43 0 32.186 24.197 33.097 55.926 33.097h144.944l11.871-60.034 12.215-57.407c3.307-15.98 11.07-36.634 6.161-58.778-3.08-13.924-32.182-17.802-51.813-17.802l-66.996.114z"/>
    <path d="M81.955 355.362h55.812c1.372-9.245 3.084-18.259 5.023-27.504 1.825-8.904 16.663-79.664 19.744-85.942 15.065-30.13 29.56-33.78 73.5-33.78l27.737.113 11.07-46.908H123.272z"/>
</svg>
